<svg xmlns="http://www.w3.org/2000/svg" width="14.547" height="14.543" viewBox="0 0 14.547 14.543">
  <path id="instagram-brands_1_" data-name="instagram-brands (1)" d="M7.2,35.368A3.729,3.729,0,1,0,10.929,39.1,3.723,3.723,0,0,0,7.2,35.368Zm0,6.153A2.424,2.424,0,1,1,9.624,39.1,2.429,2.429,0,0,1,7.2,41.521Zm4.751-6.305a.87.87,0,1,1-.87-.87A.868.868,0,0,1,11.951,35.215Zm2.47.883a4.3,4.3,0,0,0-1.175-3.047A4.332,4.332,0,0,0,10.2,31.876c-1.2-.068-4.8-.068-6,0a4.326,4.326,0,0,0-3.047,1.172A4.318,4.318,0,0,0-.024,36.095c-.068,1.2-.068,4.8,0,6a4.3,4.3,0,0,0,1.175,3.047A4.338,4.338,0,0,0,4.2,46.317c1.2.068,4.8.068,6,0a4.3,4.3,0,0,0,3.047-1.175A4.332,4.332,0,0,0,14.421,42.1C14.489,40.895,14.489,37.3,14.421,36.1Zm-1.551,7.286a2.454,2.454,0,0,1-1.382,1.382,16.028,16.028,0,0,1-4.287.292,16.153,16.153,0,0,1-4.287-.292,2.454,2.454,0,0,1-1.382-1.382A16.028,16.028,0,0,1,1.239,39.1a16.153,16.153,0,0,1,.292-4.287,2.454,2.454,0,0,1,1.382-1.382A16.028,16.028,0,0,1,7.2,33.135a16.153,16.153,0,0,1,4.287.292,2.454,2.454,0,0,1,1.382,1.382,16.028,16.028,0,0,1,.292,4.287A16.019,16.019,0,0,1,12.869,43.384Z" transform="translate(0.075 -31.825)" fill="#239ecb"/>
</svg>
