<svg xmlns="http://www.w3.org/2000/svg" width="16.616" height="13.495" viewBox="0 0 16.616 13.495">
  <path id="twitter-brands_1_" data-name="twitter-brands (1)" d="M14.908,51.445c.011.148.011.3.011.443a9.623,9.623,0,0,1-9.689,9.689A9.623,9.623,0,0,1,0,60.048a7.045,7.045,0,0,0,.822.042A6.82,6.82,0,0,0,5.05,58.635a3.411,3.411,0,0,1-3.184-2.362,4.294,4.294,0,0,0,.643.053,3.6,3.6,0,0,0,.9-.116A3.406,3.406,0,0,1,.675,52.868v-.042a3.43,3.43,0,0,0,1.539.432A3.41,3.41,0,0,1,1.16,48.7a9.68,9.68,0,0,0,7.022,3.563,3.844,3.844,0,0,1-.084-.78,3.409,3.409,0,0,1,5.893-2.33,6.7,6.7,0,0,0,2.161-.822,3.4,3.4,0,0,1-1.5,1.877,6.827,6.827,0,0,0,1.961-.527,7.32,7.32,0,0,1-1.708,1.761Z" transform="translate(0 -48.082)" fill="#239ecb"/>
</svg>
