<svg xmlns="http://www.w3.org/2000/svg" width="36.566" height="39.378" viewBox="0 0 36.566 39.378">
  <path id="Path_50" data-name="Path 50" d="M28.511,18.876a9.071,9.071,0,0,0,2.616-6.329V5.417A3.417,3.417,0,0,0,27.71,2H16.262a3.417,3.417,0,0,0-3.417,3.417v7.13a9.127,9.127,0,0,0,2.56,6.329h-.127A12.278,12.278,0,0,0,3,31.154v5.26a4.964,4.964,0,0,0,4.964,4.964H34.6a4.964,4.964,0,0,0,4.964-4.964v-5.26A12.292,12.292,0,0,0,28.512,18.876ZM16.262,4.813H27.71a.6.6,0,0,1,.6.6v5.021H15.657V5.417a.6.6,0,0,1,.6-.6Zm-.534,8.438H28.315a6.3,6.3,0,0,1-12.517,0Zm-1.477,15.47a1.406,1.406,0,1,1-1.406,1.406A1.406,1.406,0,0,1,14.251,28.721Zm22.5,7.693A2.166,2.166,0,0,1,34.6,38.566H7.964a2.166,2.166,0,0,1-2.152-2.152v-5.26a9.493,9.493,0,0,1,7.032-9.141v4.149a4.219,4.219,0,1,0,2.813,0V21.689H26.908v4.472A4.219,4.219,0,0,0,24.1,30.127V32.94a1.406,1.406,0,1,0,2.813,0V30.127a1.406,1.406,0,0,1,2.813,0V32.94a1.406,1.406,0,1,0,2.813,0V30.127a4.219,4.219,0,0,0-2.813-3.966V22.013a9.493,9.493,0,0,1,7.032,9.141ZM18.47,7.625a1.406,1.406,0,0,1,1.406-1.406H24.1a1.406,1.406,0,0,1,0,2.813H19.876A1.406,1.406,0,0,1,18.47,7.625Z" transform="translate(-3 -2)" fill="#239ecb"/>
</svg>
