<svg xmlns="http://www.w3.org/2000/svg" width="41.261" height="28.882" viewBox="0 0 41.261 28.882">
  <path id="user-friends-solid" d="M12.378,46.441a7.221,7.221,0,1,0-7.221-7.221A7.217,7.217,0,0,0,12.378,46.441ZM17.329,48.5h-.535a9.969,9.969,0,0,1-8.832,0H7.427A7.429,7.429,0,0,0,0,55.931v1.857a3.1,3.1,0,0,0,3.095,3.095H21.662a3.1,3.1,0,0,0,3.095-3.095V55.931A7.429,7.429,0,0,0,17.329,48.5Zm13.616-2.063a6.189,6.189,0,1,0-6.189-6.189A6.191,6.191,0,0,0,30.946,46.441ZM34.04,48.5H33.8a8.13,8.13,0,0,1-5.7,0h-.245a7.161,7.161,0,0,0-3.591.993,9.435,9.435,0,0,1,2.559,6.434v2.476c0,.142-.032.277-.039.413H38.166a3.1,3.1,0,0,0,3.095-3.095A7.217,7.217,0,0,0,34.04,48.5Z" transform="translate(0 -32)" fill="#239ecb"/>
</svg>
