<svg xmlns="http://www.w3.org/2000/svg" width="48.287" height="47.638" viewBox="0 0 48.287 47.638">
  <path id="Path_9626" data-name="Path 9626" d="M61.744-84.111c3.764.137,7.46-1.437,10.814-4.791a48.055,48.055,0,0,0,8.692-11.224,37.282,37.282,0,0,0,3.833-9.719h0c.958-3.7.753-6.365-.548-7.871-.753-.821-2.259-1.711-5.065-.89-3.148.89-5.407.89-6.228-.068s-.548-3.217.821-6.16c1.163-2.669.548-4.312-.205-5.133h0c-1.3-1.506-3.9-2.053-7.734-1.643a40.237,40.237,0,0,0-10.2,2.464A51.538,51.538,0,0,0,43.676-122.1c-3.764,2.943-5.886,6.3-6.228,10.061-.479,5.133,2.122,10.882,7.939,17.658C51.273-87.67,56.611-84.317,61.744-84.111Zm.068-1.985c-4.586-.205-9.445-3.354-14.92-9.582a55.464,55.464,0,0,1-4.449-5.886h0c-1.574-3.559-1.848-6.707-.684-8.213a2.944,2.944,0,0,1,3.011-.89,5.2,5.2,0,0,1,3.148,1.848c1.711,1.985,2.738,5.2,3.833,8.555a38.838,38.838,0,0,0,2.875,7.323,23.97,23.97,0,0,0,2.19,3.217,12.032,12.032,0,0,0,5.27,3.627Zm-16.7-26.486a4.94,4.94,0,0,0-4.928,1.574,10.3,10.3,0,0,0-.753,1.506,13.212,13.212,0,0,1,0-2.327c.274-3.217,2.053-6.091,5.407-8.692,9.034-6.912,17.315-8.692,21.49-9.171,3.011-.274,5.2.068,6.023,1.027h0c.548.616.479,1.643-.137,3.011a.519.519,0,0,1-.137.274h0a43.061,43.061,0,0,1-3.49,6.5c-2.327,3.97-4.722,8.008-5.954,13.072-1.711,7.323-.274,10.95,1.232,12.661A5.994,5.994,0,0,0,70.094-91.3a13.082,13.082,0,0,0,3.422-1.437c-.753.821-1.506,1.643-2.327,2.4C69-88.355,66.809-87.465,64.55-87.6a9.021,9.021,0,0,1-6.228-3.422A19.2,19.2,0,0,1,56.337-93.9a43.638,43.638,0,0,1-2.738-6.981c-1.1-3.422-2.19-6.912-4.175-9.171A7.1,7.1,0,0,0,45.113-112.583Zm38.053,2.259c-2.122,8.281-8.076,15.81-13.551,17.11a4.047,4.047,0,0,1-4.243-1.232c-1.232-1.369-2.327-4.38-.821-10.882,1.163-4.791,3.49-8.692,5.749-12.525a5.911,5.911,0,0,1,.684-1.1,4.2,4.2,0,0,0,.753,1.574c1.437,1.574,4.243,1.848,8.281.616,1.437-.411,2.464-.274,3.011.342C83.85-115.457,83.919-113.267,83.166-110.324Z" transform="translate(-37.392 131.741)" fill="#239ecb"/>
</svg>
