<svg width="45" height="46" viewBox="0 0 45 46" fill="none" xmlns="http://www.w3.org/2000/svg">
<path d="M4.05495 6.33203C1.47879 9.07974 0.237239 12.9003 0.562332 17.6324C0.784921 22.3853 1.71216 27.0788 3.31371 31.5593C4.47344 34.8613 6.09234 37.9836 8.12273 40.8342C10.2828 43.9873 12.4266 45.5836 14.4168 45.5922C15.5304 45.5639 17.1908 45.0132 18.4153 42.3583C19.8125 39.4003 21.2967 37.6973 22.5583 37.7077C23.8199 37.7181 25.3436 39.408 26.663 42.3736C27.9111 45.0039 29.5538 45.6197 30.6675 45.5914C32.6569 45.6007 34.7775 43.9999 36.9872 40.8401C39.0012 37.9619 40.6295 34.8324 41.8308 31.5314C43.3745 27.0579 44.2947 22.3931 44.5655 17.6685C44.8196 12.8973 43.6828 9.09199 41.0721 6.36325C37.517 2.62985 31.4739 0.813779 22.5438 0.747559C13.6173 0.776062 7.58253 2.59757 4.05495 6.33203ZM5.50678 7.68741C8.67424 4.36467 14.2406 2.77026 22.5329 2.73429C24.995 2.74168 27.4539 2.91302 29.8933 3.24715C33.6105 4.39869 36.1638 6.26029 36.5345 8.12725C36.6082 8.67795 36.5245 9.23826 36.2932 9.74343C36.0619 10.2486 35.6924 10.678 35.2273 10.982C34.2515 11.774 33.0219 12.1858 31.7659 12.1412C29.1453 12.127 26.0468 10.7891 22.798 9.41044C20.424 8.28072 17.9413 7.39498 15.3883 6.76686C14.115 6.50823 12.8227 6.35357 11.5242 6.30441C9.353 6.26557 7.21174 6.81507 5.32752 7.89463L5.50678 7.68741ZM36.4463 12.4979C37.1938 11.9732 37.7812 11.2516 38.1432 10.4132C38.5053 9.5748 38.6278 8.65245 38.4973 7.74859C38.3266 7.21294 38.1123 6.69217 37.8566 6.19149C38.4852 6.6485 39.0723 7.16008 39.611 7.72028C41.8563 10.0404 42.8542 13.2697 42.6116 17.5071C41.8875 28.859 37.789 36.2715 35.4072 39.7338C33.6356 42.1838 31.9396 43.6094 30.6759 43.5998C29.8515 43.6083 29.1226 42.8815 28.4959 41.5184C28.4295 41.4378 28.3888 41.3391 28.3794 41.2351C27.3144 39.0134 26.442 36.7044 25.7718 34.3336C24.3076 29.971 22.8368 25.5125 19.8284 21.2568C15.4316 15.1558 11.7531 13.8563 9.4738 13.8676C8.32154 13.8594 7.19136 14.1836 6.21861 14.8013C5.24585 15.419 4.47176 16.3039 3.989 17.3502C3.43522 18.4635 3.043 19.6501 2.82418 20.8741C2.69993 19.7671 2.57492 18.6593 2.54359 17.5431C2.48748 14.5906 3.25594 12.3541 4.84184 10.7397C5.73026 9.90136 6.7797 9.25218 7.9265 8.83153C9.07331 8.41088 10.2936 8.22751 11.5134 8.29256C12.6809 8.31807 13.8437 8.45004 14.9872 8.68684C17.4092 9.32339 19.7719 10.1672 22.0491 11.209C25.3516 12.6279 28.6989 14.099 31.7061 14.0866C33.4264 14.1497 35.111 13.5856 36.4464 12.4993L36.4463 12.4979ZM9.74319 39.7023C4.89419 32.662 3.12969 23.2268 5.74658 18.2451C6.06784 17.5295 6.59013 16.9227 7.24992 16.4985C7.90972 16.0743 8.67857 15.851 9.46296 15.8557C11.3045 15.8263 14.2939 16.9789 18.2064 22.386C21.0543 26.4104 22.4665 30.7276 23.8721 34.9489C24.0437 35.3465 24.1711 35.7618 24.252 36.1872C23.7304 35.9158 23.1576 35.7569 22.5706 35.7208C20.4399 35.7701 18.3898 37.7056 16.6658 41.5593C16.0316 42.9126 15.2535 43.5969 14.4298 43.6046C13.1637 43.5916 11.4673 42.2049 9.74328 39.7037L9.74319 39.7023Z" fill="#239ECB"/>
</svg>
