<svg xmlns="http://www.w3.org/2000/svg" width="24" height="32" viewBox="0 0 24 32">
  <g id="vuesax_linear_pause" data-name="vuesax/linear/pause" transform="translate(-620 -384)">
    <g id="pause" transform="translate(620 384)">
      <path id="Vector" d="M7.65,23.27V2.73C7.65.78,7.08,0,5.64,0H2.01C.57,0,0,.78,0,2.73V23.27C0,25.22.57,26,2.01,26H5.64C7.08,26,7.65,25.22,7.65,23.27Z" transform="translate(1 3)" fill="#239ecb" stroke="#239ecb" stroke-linecap="round" stroke-linejoin="round" stroke-width="1.5"/>
      <path id="Vector-2" data-name="Vector" d="M7.65,23.27V2.73C7.65.78,7.08,0,5.64,0H2.01C.58,0,0,.78,0,2.73V23.27C0,25.22.57,26,2.01,26H5.64C7.08,26,7.65,25.22,7.65,23.27Z" transform="translate(15.35 3)" fill="#239ecb" stroke="#239ecb" stroke-linecap="round" stroke-linejoin="round" stroke-width="1.5"/>
      <path id="Vector-3" data-name="Vector" d="M0,0H24V32H0Z" fill="#239ecb" opacity="0"/>
    </g>
  </g>
</svg>
