<svg xmlns="http://www.w3.org/2000/svg" width="33.568" height="33.568" viewBox="0 0 33.568 33.568">
  <path id="phone-solid_4_" data-name="phone-solid (4)" d="M32.338,1.6,25.52.029a1.584,1.584,0,0,0-1.8.911L20.57,8.283a1.569,1.569,0,0,0,.452,1.836L25,13.371A24.3,24.3,0,0,1,13.378,24.988l-3.252-3.973a1.572,1.572,0,0,0-1.836-.452L.947,23.71A1.592,1.592,0,0,0,.03,25.519L1.6,32.338a1.573,1.573,0,0,0,1.534,1.219,30.417,30.417,0,0,0,30.42-30.42A1.572,1.572,0,0,0,32.338,1.6Z" transform="translate(0.01 0.011)" fill="#239ecb"/>
</svg>
