<svg xmlns="http://www.w3.org/2000/svg" width="81" height="81" viewBox="0 0 81 81">
  <g id="Group_2108" data-name="Group 2108" transform="translate(-1067 -5146)">
    <g id="Group_2107" data-name="Group 2107" transform="translate(-46 -9)">
      <rect id="Rectangle_4066" data-name="Rectangle 4066" width="81" height="81" rx="20" transform="translate(1113 5155)" fill="#239ecb"/>
    </g>
    <path id="quote-left-solid_2_" data-name="quote-left-solid (2)" d="M28.707,45.859h-4.95V41.9a3.963,3.963,0,0,1,3.96-3.96h.495A1.481,1.481,0,0,0,29.7,36.455v-2.97A1.481,1.481,0,0,0,28.212,32h-.495a9.9,9.9,0,0,0-9.9,9.9V56.748a2.971,2.971,0,0,0,2.97,2.97h7.919a2.971,2.971,0,0,0,2.97-2.97V48.828A2.97,2.97,0,0,0,28.707,45.859Zm-17.818,0H5.939V41.9a3.963,3.963,0,0,1,3.96-3.96h.495a1.481,1.481,0,0,0,1.485-1.485v-2.97A1.481,1.481,0,0,0,10.394,32H9.9A9.9,9.9,0,0,0,0,41.9V56.748a2.97,2.97,0,0,0,2.97,2.97h7.919a2.97,2.97,0,0,0,2.97-2.97V48.828A2.97,2.97,0,0,0,10.889,45.859Z" transform="translate(1091.822 5140.947)" fill="#fff"/>
  </g>
</svg>
