<svg xmlns="http://www.w3.org/2000/svg" width="73.979" height="64.732" viewBox="0 0 73.979 64.732">
  <path id="quote-left-solid" d="M67.044,64.366H55.484V55.118a9.256,9.256,0,0,1,9.247-9.247h1.156A3.459,3.459,0,0,0,69.355,42.4V35.468A3.459,3.459,0,0,0,65.888,32H64.732A23.112,23.112,0,0,0,41.613,55.118V89.8a6.937,6.937,0,0,0,6.936,6.936H67.044A6.937,6.937,0,0,0,73.979,89.8V71.3A6.937,6.937,0,0,0,67.044,64.366Zm-41.613,0H13.871V55.118a9.256,9.256,0,0,1,9.247-9.247h1.156A3.459,3.459,0,0,0,27.742,42.4V35.468A3.459,3.459,0,0,0,24.274,32H23.118A23.112,23.112,0,0,0,0,55.118V89.8a6.937,6.937,0,0,0,6.936,6.936H25.43A6.937,6.937,0,0,0,32.366,89.8V71.3A6.937,6.937,0,0,0,25.43,64.366Z" transform="translate(0 -32)" fill="#239ecb"/>
</svg>
