<svg id="whitening" xmlns="http://www.w3.org/2000/svg" width="63.726" height="62.664" viewBox="0 0 63.726 62.664">
  <path id="Path_9571" data-name="Path 9571" d="M11.323,34.275a1.062,1.062,0,0,1-1.062-.86v-.149a1.083,1.083,0,1,1,2.124-.425v.17a1.062,1.062,0,0,1-.839,1.243Z" transform="translate(-1.488 -0.139)" fill="#239ecb"/>
  <path id="Path_9572" data-name="Path 9572" d="M24.4,62.56A5.534,5.534,0,0,1,19,58.153c-.627-3.016-1.529-7.435-2.252-10.95a17.652,17.652,0,0,0-3.558-7.764,14.2,14.2,0,0,1-1.37-1.965,1.066,1.066,0,0,1,1.848-1.062,11.684,11.684,0,0,0,1.158,1.721,19.84,19.84,0,0,1,4,8.688c.722,3.547,1.625,7.945,2.252,10.961a3.4,3.4,0,0,0,5.427,1.986,3.346,3.346,0,0,0,1.2-1.869l1.922-7.87a3.739,3.739,0,0,1,7.265,0l.425,1.721a1.062,1.062,0,0,1-2.06.51l-.425-1.721a1.614,1.614,0,0,0-3.186,0l-1.88,7.775A5.523,5.523,0,0,1,24.4,62.56Z" transform="translate(-1.399 0.104)" fill="#239ecb"/>
  <path id="Path_9573" data-name="Path 9573" d="M42.219,63.733a5.512,5.512,0,0,1-5.364-4.248l-.51-2.124a1.062,1.062,0,1,1,2.06-.51l.51,2.124a3.4,3.4,0,0,0,6.628-.117c.627-3.016,1.529-7.435,2.252-10.95a19.819,19.819,0,0,1,4-8.6,12.193,12.193,0,0,0,2.8-8.731,5.8,5.8,0,0,0-.531,2.358,1.062,1.062,0,0,1-2.124,0,5.852,5.852,0,0,0-5.842-5.842,1.062,1.062,0,0,1,0-2.124,5.863,5.863,0,0,0,4.142-1.71,4.939,4.939,0,0,0,.563-.669,12.289,12.289,0,0,0-12.512-2.8,15.071,15.071,0,0,1-9.878,0,12.044,12.044,0,0,0-5.087-.616,12.352,12.352,0,0,0-11.12,10.717,1.07,1.07,0,0,1-2.124-.266A14.5,14.5,0,0,1,23.144,17.053a14.338,14.338,0,0,1,5.98.733,12.82,12.82,0,0,0,8.5,0,14.381,14.381,0,0,1,15.347,3.962,1.062,1.062,0,0,1,.138,1.232,8.072,8.072,0,0,1-1.338,1.795A7.934,7.934,0,0,1,50.1,26.039a8,8,0,0,1,2.931,2.931A7.615,7.615,0,0,1,54.3,27.313a2.22,2.22,0,0,1,.244-.223,1.067,1.067,0,0,1,1.689.542,14.285,14.285,0,0,1-2.793,12.979,17.652,17.652,0,0,0-3.558,7.764c-.722,3.537-1.646,7.923-2.252,10.95A5.5,5.5,0,0,1,42.219,63.733Z" transform="translate(-1.498 -1.069)" fill="#239ecb"/>
  <path id="Path_9574" data-name="Path 9574" d="M32.628,26.006A21.858,21.858,0,0,1,22.262,23.17a1.062,1.062,0,0,1,1.062-1.806,20.18,20.18,0,0,0,9.3,2.517,20.18,20.18,0,0,0,9.262-2.517,1.062,1.062,0,1,1,1.062,1.806,21.858,21.858,0,0,1-10.324,2.836Z" transform="translate(-0.765 -0.813)" fill="#239ecb"/>
  <path id="Path_9575" data-name="Path 9575" d="M6.248,33.124H3.062a1.062,1.062,0,1,1,0-2.124H6.248a1.062,1.062,0,1,1,0,2.124Z" transform="translate(-2 -0.199)" fill="#239ecb"/>
  <path id="Path_9576" data-name="Path 9576" d="M61.248,33.124H58.062a1.062,1.062,0,1,1,0-2.124h3.186a1.062,1.062,0,0,1,0,2.124Z" transform="translate(1.416 -0.199)" fill="#239ecb"/>
  <path id="Path_9577" data-name="Path 9577" d="M32.062,7.311A1.062,1.062,0,0,1,31,6.248V3.062a1.062,1.062,0,0,1,2.124,0V6.248A1.062,1.062,0,0,1,32.062,7.311Z" transform="translate(-0.199 -2)" fill="#239ecb"/>
  <path id="Path_9578" data-name="Path 9578" d="M6.953,47.718a1.062,1.062,0,0,1-.531-1.986l2.772-1.593a1.066,1.066,0,0,1,1.062,1.848L7.5,47.58A1.062,1.062,0,0,1,6.953,47.718Z" transform="translate(-1.759 0.608)" fill="#239ecb"/>
  <path id="Path_9579" data-name="Path 9579" d="M54.583,20.218a1.062,1.062,0,0,1-.531-1.986L56.8,16.638a1.066,1.066,0,0,1,1.062,1.848L55.092,20.08A1.062,1.062,0,0,1,54.583,20.218Z" transform="translate(1.199 -1.1)" fill="#239ecb"/>
  <path id="Path_9580" data-name="Path 9580" d="M19.155,10.765a1.062,1.062,0,0,1-.924-.531L16.638,7.483a1.066,1.066,0,1,1,1.848-1.062L20.08,9.193a1.062,1.062,0,0,1-.924,1.593Z" transform="translate(-1.1 -1.759)" fill="#239ecb"/>
  <path id="Path_9581" data-name="Path 9581" d="M45.062,10.764a1.062,1.062,0,0,1-.924-1.572l1.593-2.751A1.066,1.066,0,1,1,47.579,7.5l-1.593,2.751A1.062,1.062,0,0,1,45.062,10.764Z" transform="translate(0.609 -1.757)" fill="#239ecb"/>
  <path id="Path_9582" data-name="Path 9582" d="M9.7,20.218a1.062,1.062,0,0,1-.531-.138L6.421,18.486a1.066,1.066,0,1,1,1.062-1.848l2.772,1.593A1.062,1.062,0,0,1,9.7,20.218Z" transform="translate(-1.759 -1.1)" fill="#239ecb"/>
  <path id="Path_9583" data-name="Path 9583" d="M57.334,47.718a1.062,1.062,0,0,1-.531-.138l-2.772-1.593a1.066,1.066,0,1,1,1.062-1.848l2.751,1.593a1.062,1.062,0,0,1-.531,1.986Z" transform="translate(1.198 0.608)" fill="#239ecb"/>
  <path id="Path_9584" data-name="Path 9584" d="M6.248,33.124H3.062a1.062,1.062,0,1,1,0-2.124H6.248a1.062,1.062,0,1,1,0,2.124Z" transform="translate(-2 -0.199)" fill="#239ecb"/>
  <path id="Path_9585" data-name="Path 9585" d="M61.248,33.124H58.062a1.062,1.062,0,1,1,0-2.124h3.186a1.062,1.062,0,0,1,0,2.124Z" transform="translate(1.416 -0.199)" fill="#239ecb"/>
  <path id="Path_9586" data-name="Path 9586" d="M32.062,7.311A1.062,1.062,0,0,1,31,6.248V3.062a1.062,1.062,0,0,1,2.124,0V6.248A1.062,1.062,0,0,1,32.062,7.311Z" transform="translate(-0.199 -2)" fill="#239ecb"/>
  <path id="Path_9587" data-name="Path 9587" d="M6.953,47.718a1.062,1.062,0,0,1-.531-1.986l2.772-1.593a1.066,1.066,0,0,1,1.062,1.848L7.5,47.58A1.062,1.062,0,0,1,6.953,47.718Z" transform="translate(-1.759 0.608)" fill="#239ecb"/>
  <path id="Path_9588" data-name="Path 9588" d="M54.583,20.218a1.062,1.062,0,0,1-.531-1.986L56.8,16.638a1.066,1.066,0,0,1,1.062,1.848L55.092,20.08A1.062,1.062,0,0,1,54.583,20.218Z" transform="translate(1.199 -1.1)" fill="#239ecb"/>
  <path id="Path_9589" data-name="Path 9589" d="M19.155,10.765a1.062,1.062,0,0,1-.924-.531L16.638,7.483a1.066,1.066,0,1,1,1.848-1.062L20.08,9.193a1.062,1.062,0,0,1-.924,1.593Z" transform="translate(-1.1 -1.759)" fill="#239ecb"/>
  <path id="Path_9590" data-name="Path 9590" d="M45.062,10.764a1.062,1.062,0,0,1-.924-1.572l1.593-2.751A1.066,1.066,0,1,1,47.579,7.5l-1.593,2.751A1.062,1.062,0,0,1,45.062,10.764Z" transform="translate(0.609 -1.757)" fill="#239ecb"/>
  <path id="Path_9591" data-name="Path 9591" d="M9.7,20.218a1.062,1.062,0,0,1-.531-.138L6.421,18.486a1.066,1.066,0,1,1,1.062-1.848l2.772,1.593A1.062,1.062,0,0,1,9.7,20.218Z" transform="translate(-1.759 -1.1)" fill="#239ecb"/>
  <path id="Path_9592" data-name="Path 9592" d="M57.334,47.718a1.062,1.062,0,0,1-.531-.138l-2.772-1.593a1.066,1.066,0,1,1,1.062-1.848l2.751,1.593a1.062,1.062,0,0,1-.531,1.986Z" transform="translate(1.198 0.608)" fill="#239ecb"/>
  <path id="Path_9593" data-name="Path 9593" d="M50.966,33.932A1.062,1.062,0,0,1,49.9,32.869a5.852,5.852,0,0,0-5.842-5.842,1.062,1.062,0,0,1,0-2.124,5.863,5.863,0,0,0,4.142-1.71,6.086,6.086,0,0,0,.988-1.328,5.82,5.82,0,0,0,.712-2.8,1.062,1.062,0,1,1,2.124,0A5.82,5.82,0,0,0,57.869,24.9a1.062,1.062,0,1,1,0,2.124,5.8,5.8,0,0,0-3.919,1.508l-.138.138a5.842,5.842,0,0,0-1.784,4.2A1.062,1.062,0,0,1,50.966,33.932Zm-2.931-7.966A8,8,0,0,1,50.966,28.9,7.615,7.615,0,0,1,52.23,27.24l.138-.138h0a8.1,8.1,0,0,1,1.466-1.062,8.019,8.019,0,0,1-2.921-2.921,8.5,8.5,0,0,1-1.264,1.657,7.934,7.934,0,0,1-1.614,1.19Z" transform="translate(0.546 -1.006)" fill="#239ecb"/>
</svg>
