<svg id="tooth_insurance" data-name="tooth insurance" xmlns="http://www.w3.org/2000/svg" width="24.257" height="23.841" viewBox="0 0 24.257 23.841">
  <path id="Path_9552" data-name="Path 9552" d="M10.778,11.323a.458.458,0,0,1-.348-.755,1.3,1.3,0,0,1,.137-.137.458.458,0,0,1,.6.7l-.037.037A.458.458,0,0,1,10.778,11.323Z" transform="translate(-8.35 -8.308)" fill="#239ecb"/>
  <path id="Path_9553" data-name="Path 9553" d="M22.458,33.974a2.747,2.747,0,0,1-2.669-2.092L18.8,27.844a.916.916,0,0,0-1.776,0l-.989,4.038a2.692,2.692,0,0,1-.971,1.506,2.747,2.747,0,0,1-4.386-1.6l-.458-2.234c-.233-1.126-.458-2.33-.7-3.388a9.074,9.074,0,0,0-1.831-4.02,7.325,7.325,0,0,1-1.644-5.311,7.238,7.238,0,0,1,.916-2.916.459.459,0,0,1,.8.458,6.281,6.281,0,0,0-.792,2.55A6.368,6.368,0,0,0,8.4,21.567a10.035,10.035,0,0,1,2.033,4.423c.22,1.053.458,2.257.7,3.388l.458,2.234a1.831,1.831,0,0,0,1.776,1.447,1.863,1.863,0,0,0,1.135-.389,1.831,1.831,0,0,0,.664-.984l.989-4.043a1.831,1.831,0,0,1,3.553,0l.952,4.043a1.831,1.831,0,0,0,2.655,1.172,6.409,6.409,0,0,1-2.2-4.926V26.649a.458.458,0,0,1,.916,0v1.282a5.4,5.4,0,0,0,2.289,4.514.461.461,0,0,1,.082.7,2.4,2.4,0,0,1-.224.211,2.747,2.747,0,0,1-1.721.623Z" transform="translate(-6.017 -10.134)" fill="#239ecb"/>
  <path id="Path_9554" data-name="Path 9554" d="M25.722,21.068a.458.458,0,0,1-.458-.458v-.916a.458.458,0,0,1,.311-.458l4.12-1.373a.458.458,0,0,1,.293,0l.975.325a7.933,7.933,0,0,1,.623-.856A6.412,6.412,0,0,0,24.56,7.192a7.6,7.6,0,0,1-5,0A6.469,6.469,0,0,0,16.9,6.876a6.281,6.281,0,0,0-2.55.792.459.459,0,0,1-.458-.8,7.238,7.238,0,0,1,2.916-.916,7.357,7.357,0,0,1,3.031.366,6.62,6.62,0,0,0,4.409,0A7.325,7.325,0,0,1,32.283,17.9a7.128,7.128,0,0,0-.728,1.053.458.458,0,0,1-.545.206L29.843,18.8,26.18,20.024v.586A.458.458,0,0,1,25.722,21.068Z" transform="translate(-10.164 -5.926)" fill="#239ecb"/>
  <path id="Path_9555" data-name="Path 9555" d="M25.405,13.243A11.116,11.116,0,0,1,20.131,11.8a.458.458,0,1,1,.458-.778,10.438,10.438,0,0,0,4.816,1.3,10.388,10.388,0,0,0,4.8-1.3.458.458,0,1,1,.458.778A11.116,11.116,0,0,1,25.405,13.243Z" transform="translate(-13.51 -8.632)" fill="#239ecb"/>
  <path id="Path_9556" data-name="Path 9556" d="M43.577,43.875h-.1a5.192,5.192,0,0,1-1.763-.755A6.341,6.341,0,0,1,39,37.832V36.55a.458.458,0,1,1,.916,0v1.282A5.4,5.4,0,0,0,42.2,42.346a4.121,4.121,0,0,0,1.373.613,5.152,5.152,0,0,0,3.663-5.114V34.132L43.577,32.91l-3.663,1.222v.586a.458.458,0,1,1-.916,0V33.8a.458.458,0,0,1,.311-.458l4.12-1.373a.458.458,0,0,1,.293,0l4.12,1.373a.458.458,0,0,1,.311.458v4.029a6.054,6.054,0,0,1-4.477,6.034Z" transform="translate(-23.899 -20.035)" fill="#239ecb"/>
  <path id="Path_9557" data-name="Path 9557" d="M46.371,44.2a.458.458,0,0,1-.325-.133l-.916-.916a.46.46,0,0,1,.65-.65l.591.6,1.964-1.969a.46.46,0,0,1,.65.65L46.7,44.07A.458.458,0,0,1,46.371,44.2Z" transform="translate(-27.15 -24.94)" fill="#239ecb"/>
</svg>
