<svg xmlns="http://www.w3.org/2000/svg" width="143" height="105" viewBox="0 0 143 105">
  <g id="Group_3" data-name="Group 3" transform="translate(-0.273)">
    <circle id="Ellipse_1" data-name="Ellipse 1" cx="1.5" cy="1.5" r="1.5" transform="translate(0.273)" fill="#d7deeb"/>
    <circle id="Ellipse_14" data-name="Ellipse 14" cx="1.5" cy="1.5" r="1.5" transform="translate(0.273 13)" fill="#d7deeb"/>
    <ellipse id="Ellipse_27" data-name="Ellipse 27" cx="1.5" cy="2" rx="1.5" ry="2" transform="translate(0.273 25)" fill="#d7deeb"/>
    <circle id="Ellipse_40" data-name="Ellipse 40" cx="1.5" cy="1.5" r="1.5" transform="translate(0.273 38)" fill="#d7deeb"/>
    <circle id="Ellipse_53" data-name="Ellipse 53" cx="1.5" cy="1.5" r="1.5" transform="translate(0.273 51)" fill="#d7deeb"/>
    <ellipse id="Ellipse_66" data-name="Ellipse 66" cx="1.5" cy="2" rx="1.5" ry="2" transform="translate(0.273 63)" fill="#d7deeb"/>
    <circle id="Ellipse_79" data-name="Ellipse 79" cx="1.5" cy="1.5" r="1.5" transform="translate(0.273 76)" fill="#d7deeb"/>
    <circle id="Ellipse_92" data-name="Ellipse 92" cx="1.5" cy="1.5" r="1.5" transform="translate(0.273 89)" fill="#d7deeb"/>
    <circle id="Ellipse_105" data-name="Ellipse 105" cx="1.5" cy="1.5" r="1.5" transform="translate(0.273 102)" fill="#d7deeb"/>
    <circle id="Ellipse_5" data-name="Ellipse 5" cx="1.5" cy="1.5" r="1.5" transform="translate(46.273)" fill="#d7deeb"/>
    <circle id="Ellipse_18" data-name="Ellipse 18" cx="1.5" cy="1.5" r="1.5" transform="translate(46.273 13)" fill="#d7deeb"/>
    <ellipse id="Ellipse_31" data-name="Ellipse 31" cx="1.5" cy="2" rx="1.5" ry="2" transform="translate(46.273 25)" fill="#d7deeb"/>
    <circle id="Ellipse_44" data-name="Ellipse 44" cx="1.5" cy="1.5" r="1.5" transform="translate(46.273 38)" fill="#d7deeb"/>
    <circle id="Ellipse_57" data-name="Ellipse 57" cx="1.5" cy="1.5" r="1.5" transform="translate(46.273 51)" fill="#d7deeb"/>
    <ellipse id="Ellipse_70" data-name="Ellipse 70" cx="1.5" cy="2" rx="1.5" ry="2" transform="translate(46.273 63)" fill="#d7deeb"/>
    <circle id="Ellipse_83" data-name="Ellipse 83" cx="1.5" cy="1.5" r="1.5" transform="translate(46.273 76)" fill="#d7deeb"/>
    <circle id="Ellipse_96" data-name="Ellipse 96" cx="1.5" cy="1.5" r="1.5" transform="translate(46.273 89)" fill="#d7deeb"/>
    <circle id="Ellipse_109" data-name="Ellipse 109" cx="1.5" cy="1.5" r="1.5" transform="translate(46.273 102)" fill="#d7deeb"/>
    <ellipse id="Ellipse_9" data-name="Ellipse 9" cx="2" cy="1.5" rx="2" ry="1.5" transform="translate(104.273)" fill="#d7deeb"/>
    <ellipse id="Ellipse_23" data-name="Ellipse 23" cx="2" cy="1.5" rx="2" ry="1.5" transform="translate(104.273 13)" fill="#d7deeb"/>
    <circle id="Ellipse_36" data-name="Ellipse 36" cx="2" cy="2" r="2" transform="translate(104.273 25)" fill="#d7deeb"/>
    <ellipse id="Ellipse_49" data-name="Ellipse 49" cx="2" cy="1.5" rx="2" ry="1.5" transform="translate(104.273 38)" fill="#d7deeb"/>
    <ellipse id="Ellipse_62" data-name="Ellipse 62" cx="2" cy="1.5" rx="2" ry="1.5" transform="translate(104.273 51)" fill="#d7deeb"/>
    <circle id="Ellipse_75" data-name="Ellipse 75" cx="2" cy="2" r="2" transform="translate(104.273 63)" fill="#d7deeb"/>
    <ellipse id="Ellipse_88" data-name="Ellipse 88" cx="2" cy="1.5" rx="2" ry="1.5" transform="translate(104.273 76)" fill="#d7deeb"/>
    <ellipse id="Ellipse_101" data-name="Ellipse 101" cx="2" cy="1.5" rx="2" ry="1.5" transform="translate(104.273 89)" fill="#d7deeb"/>
    <ellipse id="Ellipse_114" data-name="Ellipse 114" cx="2" cy="1.5" rx="2" ry="1.5" transform="translate(104.273 102)" fill="#d7deeb"/>
    <ellipse id="Ellipse_2" data-name="Ellipse 2" cx="2" cy="1.5" rx="2" ry="1.5" transform="translate(11.273)" fill="#d7deeb"/>
    <ellipse id="Ellipse_15" data-name="Ellipse 15" cx="2" cy="1.5" rx="2" ry="1.5" transform="translate(11.273 13)" fill="#d7deeb"/>
    <circle id="Ellipse_28" data-name="Ellipse 28" cx="2" cy="2" r="2" transform="translate(11.273 25)" fill="#d7deeb"/>
    <ellipse id="Ellipse_41" data-name="Ellipse 41" cx="2" cy="1.5" rx="2" ry="1.5" transform="translate(11.273 38)" fill="#d7deeb"/>
    <ellipse id="Ellipse_54" data-name="Ellipse 54" cx="2" cy="1.5" rx="2" ry="1.5" transform="translate(11.273 51)" fill="#d7deeb"/>
    <circle id="Ellipse_67" data-name="Ellipse 67" cx="2" cy="2" r="2" transform="translate(11.273 63)" fill="#d7deeb"/>
    <ellipse id="Ellipse_80" data-name="Ellipse 80" cx="2" cy="1.5" rx="2" ry="1.5" transform="translate(11.273 76)" fill="#d7deeb"/>
    <ellipse id="Ellipse_93" data-name="Ellipse 93" cx="2" cy="1.5" rx="2" ry="1.5" transform="translate(11.273 89)" fill="#d7deeb"/>
    <ellipse id="Ellipse_106" data-name="Ellipse 106" cx="2" cy="1.5" rx="2" ry="1.5" transform="translate(11.273 102)" fill="#d7deeb"/>
    <circle id="Ellipse_6" data-name="Ellipse 6" cx="1.5" cy="1.5" r="1.5" transform="translate(58.273)" fill="#d7deeb"/>
    <circle id="Ellipse_19" data-name="Ellipse 19" cx="1.5" cy="1.5" r="1.5" transform="translate(58.273 13)" fill="#d7deeb"/>
    <ellipse id="Ellipse_32" data-name="Ellipse 32" cx="1.5" cy="2" rx="1.5" ry="2" transform="translate(58.273 25)" fill="#d7deeb"/>
    <circle id="Ellipse_45" data-name="Ellipse 45" cx="1.5" cy="1.5" r="1.5" transform="translate(58.273 38)" fill="#d7deeb"/>
    <circle id="Ellipse_58" data-name="Ellipse 58" cx="1.5" cy="1.5" r="1.5" transform="translate(58.273 51)" fill="#d7deeb"/>
    <ellipse id="Ellipse_71" data-name="Ellipse 71" cx="1.5" cy="2" rx="1.5" ry="2" transform="translate(58.273 63)" fill="#d7deeb"/>
    <circle id="Ellipse_84" data-name="Ellipse 84" cx="1.5" cy="1.5" r="1.5" transform="translate(58.273 76)" fill="#d7deeb"/>
    <circle id="Ellipse_97" data-name="Ellipse 97" cx="1.5" cy="1.5" r="1.5" transform="translate(58.273 89)" fill="#d7deeb"/>
    <circle id="Ellipse_110" data-name="Ellipse 110" cx="1.5" cy="1.5" r="1.5" transform="translate(58.273 102)" fill="#d7deeb"/>
    <circle id="Ellipse_11" data-name="Ellipse 11" cx="1.5" cy="1.5" r="1.5" transform="translate(116.273)" fill="#d7deeb"/>
    <circle id="Ellipse_24" data-name="Ellipse 24" cx="1.5" cy="1.5" r="1.5" transform="translate(116.273 13)" fill="#d7deeb"/>
    <ellipse id="Ellipse_37" data-name="Ellipse 37" cx="1.5" cy="2" rx="1.5" ry="2" transform="translate(116.273 25)" fill="#d7deeb"/>
    <circle id="Ellipse_50" data-name="Ellipse 50" cx="1.5" cy="1.5" r="1.5" transform="translate(116.273 38)" fill="#d7deeb"/>
    <circle id="Ellipse_63" data-name="Ellipse 63" cx="1.5" cy="1.5" r="1.5" transform="translate(116.273 51)" fill="#d7deeb"/>
    <ellipse id="Ellipse_76" data-name="Ellipse 76" cx="1.5" cy="2" rx="1.5" ry="2" transform="translate(116.273 63)" fill="#d7deeb"/>
    <circle id="Ellipse_89" data-name="Ellipse 89" cx="1.5" cy="1.5" r="1.5" transform="translate(116.273 76)" fill="#d7deeb"/>
    <circle id="Ellipse_102" data-name="Ellipse 102" cx="1.5" cy="1.5" r="1.5" transform="translate(116.273 89)" fill="#d7deeb"/>
    <circle id="Ellipse_115" data-name="Ellipse 115" cx="1.5" cy="1.5" r="1.5" transform="translate(116.273 102)" fill="#d7deeb"/>
    <circle id="Ellipse_3" data-name="Ellipse 3" cx="1.5" cy="1.5" r="1.5" transform="translate(23.273)" fill="#d7deeb"/>
    <circle id="Ellipse_16" data-name="Ellipse 16" cx="1.5" cy="1.5" r="1.5" transform="translate(23.273 13)" fill="#d7deeb"/>
    <ellipse id="Ellipse_29" data-name="Ellipse 29" cx="1.5" cy="2" rx="1.5" ry="2" transform="translate(23.273 25)" fill="#d7deeb"/>
    <circle id="Ellipse_42" data-name="Ellipse 42" cx="1.5" cy="1.5" r="1.5" transform="translate(23.273 38)" fill="#d7deeb"/>
    <circle id="Ellipse_55" data-name="Ellipse 55" cx="1.5" cy="1.5" r="1.5" transform="translate(23.273 51)" fill="#d7deeb"/>
    <ellipse id="Ellipse_68" data-name="Ellipse 68" cx="1.5" cy="2" rx="1.5" ry="2" transform="translate(23.273 63)" fill="#d7deeb"/>
    <circle id="Ellipse_81" data-name="Ellipse 81" cx="1.5" cy="1.5" r="1.5" transform="translate(23.273 76)" fill="#d7deeb"/>
    <circle id="Ellipse_94" data-name="Ellipse 94" cx="1.5" cy="1.5" r="1.5" transform="translate(23.273 89)" fill="#d7deeb"/>
    <circle id="Ellipse_107" data-name="Ellipse 107" cx="1.5" cy="1.5" r="1.5" transform="translate(23.273 102)" fill="#d7deeb"/>
    <circle id="Ellipse_7" data-name="Ellipse 7" cx="1.5" cy="1.5" r="1.5" transform="translate(70.273)" fill="#d7deeb"/>
    <circle id="Ellipse_20" data-name="Ellipse 20" cx="1.5" cy="1.5" r="1.5" transform="translate(70.273 13)" fill="#d7deeb"/>
    <ellipse id="Ellipse_33" data-name="Ellipse 33" cx="1.5" cy="2" rx="1.5" ry="2" transform="translate(70.273 25)" fill="#d7deeb"/>
    <circle id="Ellipse_46" data-name="Ellipse 46" cx="1.5" cy="1.5" r="1.5" transform="translate(70.273 38)" fill="#d7deeb"/>
    <circle id="Ellipse_59" data-name="Ellipse 59" cx="1.5" cy="1.5" r="1.5" transform="translate(70.273 51)" fill="#d7deeb"/>
    <ellipse id="Ellipse_72" data-name="Ellipse 72" cx="1.5" cy="2" rx="1.5" ry="2" transform="translate(70.273 63)" fill="#d7deeb"/>
    <circle id="Ellipse_85" data-name="Ellipse 85" cx="1.5" cy="1.5" r="1.5" transform="translate(70.273 76)" fill="#d7deeb"/>
    <circle id="Ellipse_98" data-name="Ellipse 98" cx="1.5" cy="1.5" r="1.5" transform="translate(70.273 89)" fill="#d7deeb"/>
    <circle id="Ellipse_111" data-name="Ellipse 111" cx="1.5" cy="1.5" r="1.5" transform="translate(70.273 102)" fill="#d7deeb"/>
    <circle id="Ellipse_12" data-name="Ellipse 12" cx="1.5" cy="1.5" r="1.5" transform="translate(128.273)" fill="#d7deeb"/>
    <circle id="Ellipse_25" data-name="Ellipse 25" cx="1.5" cy="1.5" r="1.5" transform="translate(128.273 13)" fill="#d7deeb"/>
    <ellipse id="Ellipse_38" data-name="Ellipse 38" cx="1.5" cy="2" rx="1.5" ry="2" transform="translate(128.273 25)" fill="#d7deeb"/>
    <circle id="Ellipse_51" data-name="Ellipse 51" cx="1.5" cy="1.5" r="1.5" transform="translate(128.273 38)" fill="#d7deeb"/>
    <circle id="Ellipse_64" data-name="Ellipse 64" cx="1.5" cy="1.5" r="1.5" transform="translate(128.273 51)" fill="#d7deeb"/>
    <ellipse id="Ellipse_77" data-name="Ellipse 77" cx="1.5" cy="2" rx="1.5" ry="2" transform="translate(128.273 63)" fill="#d7deeb"/>
    <circle id="Ellipse_90" data-name="Ellipse 90" cx="1.5" cy="1.5" r="1.5" transform="translate(128.273 76)" fill="#d7deeb"/>
    <circle id="Ellipse_103" data-name="Ellipse 103" cx="1.5" cy="1.5" r="1.5" transform="translate(128.273 89)" fill="#d7deeb"/>
    <circle id="Ellipse_116" data-name="Ellipse 116" cx="1.5" cy="1.5" r="1.5" transform="translate(128.273 102)" fill="#d7deeb"/>
    <circle id="Ellipse_4" data-name="Ellipse 4" cx="1.5" cy="1.5" r="1.5" transform="translate(35.273)" fill="#d7deeb"/>
    <circle id="Ellipse_17" data-name="Ellipse 17" cx="1.5" cy="1.5" r="1.5" transform="translate(35.273 13)" fill="#d7deeb"/>
    <ellipse id="Ellipse_30" data-name="Ellipse 30" cx="1.5" cy="2" rx="1.5" ry="2" transform="translate(35.273 25)" fill="#d7deeb"/>
    <circle id="Ellipse_43" data-name="Ellipse 43" cx="1.5" cy="1.5" r="1.5" transform="translate(35.273 38)" fill="#d7deeb"/>
    <circle id="Ellipse_56" data-name="Ellipse 56" cx="1.5" cy="1.5" r="1.5" transform="translate(35.273 51)" fill="#d7deeb"/>
    <ellipse id="Ellipse_69" data-name="Ellipse 69" cx="1.5" cy="2" rx="1.5" ry="2" transform="translate(35.273 63)" fill="#d7deeb"/>
    <circle id="Ellipse_82" data-name="Ellipse 82" cx="1.5" cy="1.5" r="1.5" transform="translate(35.273 76)" fill="#d7deeb"/>
    <circle id="Ellipse_95" data-name="Ellipse 95" cx="1.5" cy="1.5" r="1.5" transform="translate(35.273 89)" fill="#d7deeb"/>
    <circle id="Ellipse_108" data-name="Ellipse 108" cx="1.5" cy="1.5" r="1.5" transform="translate(35.273 102)" fill="#d7deeb"/>
    <circle id="Ellipse_10" data-name="Ellipse 10" cx="1.5" cy="1.5" r="1.5" transform="translate(93.273)" fill="#d7deeb"/>
    <circle id="Ellipse_22" data-name="Ellipse 22" cx="1.5" cy="1.5" r="1.5" transform="translate(93.273 13)" fill="#d7deeb"/>
    <ellipse id="Ellipse_35" data-name="Ellipse 35" cx="1.5" cy="2" rx="1.5" ry="2" transform="translate(93.273 25)" fill="#d7deeb"/>
    <circle id="Ellipse_48" data-name="Ellipse 48" cx="1.5" cy="1.5" r="1.5" transform="translate(93.273 38)" fill="#d7deeb"/>
    <circle id="Ellipse_61" data-name="Ellipse 61" cx="1.5" cy="1.5" r="1.5" transform="translate(93.273 51)" fill="#d7deeb"/>
    <ellipse id="Ellipse_74" data-name="Ellipse 74" cx="1.5" cy="2" rx="1.5" ry="2" transform="translate(93.273 63)" fill="#d7deeb"/>
    <circle id="Ellipse_87" data-name="Ellipse 87" cx="1.5" cy="1.5" r="1.5" transform="translate(93.273 76)" fill="#d7deeb"/>
    <circle id="Ellipse_100" data-name="Ellipse 100" cx="1.5" cy="1.5" r="1.5" transform="translate(93.273 89)" fill="#d7deeb"/>
    <circle id="Ellipse_113" data-name="Ellipse 113" cx="1.5" cy="1.5" r="1.5" transform="translate(93.273 102)" fill="#d7deeb"/>
    <circle id="Ellipse_8" data-name="Ellipse 8" cx="1.5" cy="1.5" r="1.5" transform="translate(81.273)" fill="#d7deeb"/>
    <circle id="Ellipse_21" data-name="Ellipse 21" cx="1.5" cy="1.5" r="1.5" transform="translate(81.273 13)" fill="#d7deeb"/>
    <ellipse id="Ellipse_34" data-name="Ellipse 34" cx="1.5" cy="2" rx="1.5" ry="2" transform="translate(81.273 25)" fill="#d7deeb"/>
    <circle id="Ellipse_47" data-name="Ellipse 47" cx="1.5" cy="1.5" r="1.5" transform="translate(81.273 38)" fill="#d7deeb"/>
    <circle id="Ellipse_60" data-name="Ellipse 60" cx="1.5" cy="1.5" r="1.5" transform="translate(81.273 51)" fill="#d7deeb"/>
    <ellipse id="Ellipse_73" data-name="Ellipse 73" cx="1.5" cy="2" rx="1.5" ry="2" transform="translate(81.273 63)" fill="#d7deeb"/>
    <circle id="Ellipse_86" data-name="Ellipse 86" cx="1.5" cy="1.5" r="1.5" transform="translate(81.273 76)" fill="#d7deeb"/>
    <circle id="Ellipse_99" data-name="Ellipse 99" cx="1.5" cy="1.5" r="1.5" transform="translate(81.273 89)" fill="#d7deeb"/>
    <circle id="Ellipse_112" data-name="Ellipse 112" cx="1.5" cy="1.5" r="1.5" transform="translate(81.273 102)" fill="#d7deeb"/>
    <ellipse id="Ellipse_13" data-name="Ellipse 13" cx="2" cy="1.5" rx="2" ry="1.5" transform="translate(139.273)" fill="#d7deeb"/>
    <ellipse id="Ellipse_26" data-name="Ellipse 26" cx="2" cy="1.5" rx="2" ry="1.5" transform="translate(139.273 13)" fill="#d7deeb"/>
    <circle id="Ellipse_39" data-name="Ellipse 39" cx="2" cy="2" r="2" transform="translate(139.273 25)" fill="#d7deeb"/>
    <ellipse id="Ellipse_52" data-name="Ellipse 52" cx="2" cy="1.5" rx="2" ry="1.5" transform="translate(139.273 38)" fill="#d7deeb"/>
    <ellipse id="Ellipse_65" data-name="Ellipse 65" cx="2" cy="1.5" rx="2" ry="1.5" transform="translate(139.273 51)" fill="#d7deeb"/>
    <circle id="Ellipse_78" data-name="Ellipse 78" cx="2" cy="2" r="2" transform="translate(139.273 63)" fill="#d7deeb"/>
    <ellipse id="Ellipse_91" data-name="Ellipse 91" cx="2" cy="1.5" rx="2" ry="1.5" transform="translate(139.273 76)" fill="#d7deeb"/>
    <ellipse id="Ellipse_104" data-name="Ellipse 104" cx="2" cy="1.5" rx="2" ry="1.5" transform="translate(139.273 89)" fill="#d7deeb"/>
    <ellipse id="Ellipse_117" data-name="Ellipse 117" cx="2" cy="1.5" rx="2" ry="1.5" transform="translate(139.273 102)" fill="#d7deeb"/>
  </g>
</svg>
